<mxfile host="app.diagrams.net" modified="2022-06-12T15:47:06.602Z" agent="5.0 (Windows NT 10.0; Win64; x64) AppleWebKit/537.36 (KHTML, like Gecko) Chrome/102.0.5005.115 Safari/537.36" etag="pZdYDz8cWBLAxyKu6XEh" version="16.5.6" type="github">
  <diagram id="y3EiybXIKnw3bC-tVcGD" name="Page-1">
    <mxGraphModel dx="868" dy="442" grid="1" gridSize="10" guides="1" tooltips="1" connect="1" arrows="1" fold="1" page="1" pageScale="1" pageWidth="827" pageHeight="1169" math="0" shadow="0">
      <root>
        <mxCell id="0" />
        <mxCell id="1" parent="0" />
        <mxCell id="rb5BarkwwTpu1mekzSuI-3" value="" style="edgeStyle=orthogonalEdgeStyle;rounded=0;orthogonalLoop=1;jettySize=auto;html=1;fontSize=24;" edge="1" parent="1" source="rb5BarkwwTpu1mekzSuI-1" target="rb5BarkwwTpu1mekzSuI-2">
          <mxGeometry relative="1" as="geometry" />
        </mxCell>
        <mxCell id="rb5BarkwwTpu1mekzSuI-1" value="&lt;font style=&quot;font-size: 24px&quot;&gt;Start&lt;/font&gt;" style="strokeWidth=2;html=1;shape=mxgraph.flowchart.start_1;whiteSpace=wrap;" vertex="1" parent="1">
          <mxGeometry x="360" y="20" width="100" height="60" as="geometry" />
        </mxCell>
        <mxCell id="rb5BarkwwTpu1mekzSuI-5" value="" style="edgeStyle=orthogonalEdgeStyle;rounded=0;orthogonalLoop=1;jettySize=auto;html=1;fontSize=24;" edge="1" parent="1" source="rb5BarkwwTpu1mekzSuI-2" target="rb5BarkwwTpu1mekzSuI-4">
          <mxGeometry relative="1" as="geometry" />
        </mxCell>
        <mxCell id="rb5BarkwwTpu1mekzSuI-2" value="X = int" style="html=1;strokeWidth=2;shape=manualInput;whiteSpace=wrap;rounded=1;size=26;arcSize=11;fontSize=24;" vertex="1" parent="1">
          <mxGeometry x="364" y="110" width="100" height="60" as="geometry" />
        </mxCell>
        <mxCell id="rb5BarkwwTpu1mekzSuI-4" value="&lt;font size=&quot;1&quot;&gt;decimal =&amp;nbsp;&lt;/font&gt;" style="whiteSpace=wrap;html=1;fontSize=24;strokeWidth=2;rounded=1;arcSize=11;" vertex="1" parent="1">
          <mxGeometry x="354" y="250" width="120" height="60" as="geometry" />
        </mxCell>
      </root>
    </mxGraphModel>
  </diagram>
</mxfile>
